# xmcd
#
# Track frame offsets: 
#        150
#        30277
#        45390
#        70345
#        88010
#        120060
#        144780
#        168217
#        196530
#        216752
#        234315
#        280567
#
# Disc length: 4344 seconds
#
# Revision: 1
# Processed by: cddbd v1.5.2PL0 Copyright (c) Steve Scherf et al.
# Submitted via: ExactAudioCopy v1.0b3
#
DISCID=8610f60c
DTITLE=Machine Head - Through the Ashes of Empires
DYEAR=2003
DGENRE=Metal
TTITLE0=Imperium
TTITLE1=Bite the Bullet
TTITLE2=Left Unfinished
TTITLE3=Elegy
TTITLE4=In the Presence of My Enemies
TTITLE5=Days Turn Blue to Gray
TTITLE6=Vim
TTITLE7=Seasons Wither
TTITLE8=All Falls Down
TTITLE9=Wipe the Tears
TTITLE10=Descend the Shades of Night
TTITLE11=DATA
EXTD=
EXTT0=
EXTT1=
EXTT2=
EXTT3=
EXTT4=
EXTT5=
EXTT6=
EXTT7=
EXTT8=
EXTT9=
EXTT10=
EXTT11=
PLAYORDER=
